<?xml version="1.0" encoding="UTF-8"?>
<svg version="1.1" xmlns="http://www.w3.org/2000/svg" width="244" height="195">
<path d="M0 0 C80.52 0 161.04 0 244 0 C244 64.35 244 128.7 244 195 C163.48 195 82.96 195 0 195 C0 130.65 0 66.3 0 0 Z " fill="#000102" transform="translate(0,0)"/>
<path d="M0 0 C80.52 0 161.04 0 244 0 C244 64.35 244 128.7 244 195 C163.48 195 82.96 195 0 195 C0 130.65 0 66.3 0 0 Z M35.1875 34.3125 C29.49323101 42.13386251 26.88967094 49.55721081 26.83886719 59.18017578 C26.83390228 59.89621475 26.82893738 60.61225372 26.82382202 61.34999084 C26.80923864 63.71510794 26.80240308 66.08015785 26.796875 68.4453125 C26.79111827 70.0971578 26.78536061 71.7490031 26.77960205 73.40084839 C26.76910145 76.86586822 26.76325333 80.33086494 26.75976562 83.79589844 C26.75429764 88.21392748 26.73030219 92.63164574 26.70179367 97.04957771 C26.68306977 100.46417093 26.67795642 103.87869095 26.67642975 107.29333115 C26.67342219 108.92066004 26.66545854 110.54798824 26.65224457 112.17526627 C26.54714397 126.11904069 28.07239591 138.23701398 37.81640625 149.0078125 C45.30804111 156.00000503 52.90797682 159.18823535 63 160 C62.98952637 160.77714355 62.97905273 161.55428711 62.96826172 162.35498047 C62.92679718 165.861621 62.90070422 169.36821006 62.875 172.875 C62.85824219 174.09832031 62.84148438 175.32164062 62.82421875 176.58203125 C62.81777344 177.74863281 62.81132813 178.91523438 62.8046875 180.1171875 C62.79421387 181.19597168 62.78374023 182.27475586 62.77294922 183.38623047 C62.73160023 186.16044022 62.73160023 186.16044022 65 188 C69.46738832 188.62107594 71.47502241 188.33961821 75.296875 185.8671875 C76.46110373 184.88521661 77.61148964 183.88667659 78.75 182.875 C80.04631518 181.77879951 81.34596739 180.68653648 82.6484375 179.59765625 C83.3403418 179.0164502 84.03224609 178.43524414 84.74511719 177.83642578 C88.83676002 174.50410254 93.11030152 171.41812068 97.375 168.3125 C99.00805688 167.12142874 100.64088862 165.9300487 102.2734375 164.73828125 C102.96872559 164.23337158 103.66401367 163.72846191 104.38037109 163.20825195 C105.95078626 162.09719927 105.95078626 162.09719927 107 161 C109.3755082 160.89628681 111.7228796 160.85638098 114.09912109 160.8581543 C114.8423764 160.85467987 115.58563171 160.85120544 116.35140991 160.84762573 C117.97253032 160.84025302 119.59366094 160.83491575 121.21479416 160.83133507 C123.78875654 160.82417614 126.36252754 160.8085094 128.93643188 160.78999329 C136.25756029 160.73752968 143.57859047 160.68964469 150.89990234 160.67407227 C155.37518541 160.66392853 159.84999658 160.63443221 164.32509232 160.59275246 C166.02410925 160.58051582 167.72319313 160.57530766 169.42225266 160.57755089 C182.70794173 160.59076188 194.57185796 159.16651427 205 150 C215.20966087 138.49644152 216.61515317 126.18271125 216.53125 111.43359375 C216.53395116 109.74691037 216.53783874 108.06022852 216.54284668 106.37355042 C216.54871084 102.85605902 216.5402782 99.33897667 216.52148438 95.8215332 C216.49867872 91.33737146 216.51184735 86.8541668 216.53577423 82.37003994 C216.55030119 78.89277572 216.54559514 75.41573453 216.53526306 71.93846321 C216.53261569 70.28603054 216.53579459 68.63357688 216.54518127 66.98116875 C216.58502407 58.00003641 216.38709899 50.10341983 212 42 C211.53078125 41.10925781 211.0615625 40.21851562 210.578125 39.30078125 C205.27601863 31.36321612 198.91424574 25.57586664 190 22 C188.82210152 21.48848892 188.82210152 21.48848892 187.6204071 20.96664429 C182.41246279 19.5761295 177.38733017 19.70516652 172.01879883 19.70947266 C170.81639557 19.70275543 169.61399231 19.69603821 168.37515259 19.68911743 C165.08764445 19.67340458 161.8002882 19.66676403 158.51274705 19.66548586 C156.45392362 19.66406035 154.39512634 19.6597831 152.33630943 19.65449142 C145.13947251 19.63600416 137.94270949 19.62781876 130.74584961 19.62939453 C124.06114591 19.63059405 117.37676605 19.60952588 110.69214422 19.5779072 C104.93477114 19.55165526 99.17750321 19.54103102 93.42007083 19.54230535 C89.98964106 19.54281258 86.55949901 19.53726386 83.12912941 19.51594925 C79.29520803 19.49625674 75.46210972 19.50214175 71.62817383 19.51416016 C70.50830582 19.50292114 69.38843781 19.49168213 68.2346344 19.48010254 C55.32756874 19.58242258 43.49919021 24.18317902 35.1875 34.3125 Z " fill="#000101" transform="translate(0,0)"/>
<path d="M0 0 C1.55988899 -0.0129007 1.55988899 -0.0129007 3.15129089 -0.02606201 C4.28689957 -0.03032196 5.42250824 -0.03458191 6.5925293 -0.03897095 C8.39328667 -0.05123718 8.39328667 -0.05123718 10.23042297 -0.06375122 C14.20919465 -0.08859128 18.18792832 -0.10527876 22.16674805 -0.11953735 C23.54091396 -0.12490059 24.91507981 -0.13027811 26.28924561 -0.13566971 C32.01113983 -0.15729496 37.73303133 -0.17602635 43.45495605 -0.1872921 C51.62904263 -0.20349609 59.80265126 -0.23659059 67.97655773 -0.29369295 C73.73728765 -0.33255 79.49789063 -0.35194363 85.25874805 -0.35721266 C88.69213589 -0.36084639 92.12501332 -0.37265241 95.55825806 -0.4053154 C99.3994733 -0.43707817 103.23949742 -0.43698563 107.08081055 -0.42959595 C108.20022537 -0.44600128 109.3196402 -0.46240662 110.47297668 -0.47930908 C122.62047958 -0.38420297 132.92079474 4.3171927 141.53393555 12.81015015 C148.46663707 20.39818167 152.15845893 29.44544591 152.14477539 39.72885132 C152.15149261 40.46308319 152.15820984 41.19731506 152.16513062 41.95379639 C152.18404295 44.36822383 152.18803185 46.7823721 152.19018555 49.1968689 C152.19661994 50.8883017 152.20334877 52.57973342 152.21035767 54.27116394 C152.22231481 57.81421485 152.22604028 61.35716839 152.22485352 64.90023804 C152.22465082 69.41464222 152.25190834 73.92841338 152.28639793 78.44266796 C152.30876814 81.93709614 152.31268792 85.43137467 152.31163406 88.92586708 C152.31397654 90.5886585 152.32272275 92.25145492 152.3382988 93.91417503 C152.45677208 107.8715642 150.42023324 119.37559208 140.85424805 130.15390015 C130.56471946 139.19857083 118.96037095 140.70090099 105.79611015 140.33410263 C103.29057929 140.26954787 100.78680067 140.24002895 98.28053284 140.22058105 C91.1633081 140.16367299 84.04811767 140.0817182 76.93310547 139.89022827 C52.89964089 138.34416547 52.89964089 138.34416547 31.81518555 147.90390015 C29.94044372 149.68851866 28.17729771 151.51039725 26.45787048 153.44445801 C23.92939422 156.13978315 21.04888673 158.13885914 18.04174805 160.27890015 C15.37852801 162.25421775 12.78082706 164.21670605 10.26049805 166.37265015 C7.00174064 168.78497706 4.81103866 168.60183871 0.85424805 168.15390015 C-1.14575195 166.15390015 -1.14575195 166.15390015 -1.37280273 163.54013062 C-1.35709229 161.92195435 -1.35709229 161.92195435 -1.34106445 160.27108765 C-1.33461914 159.10448608 -1.32817383 157.93788452 -1.3215332 156.7359314 C-1.30477539 155.51261108 -1.28801758 154.28929077 -1.27075195 153.02890015 C-1.26172852 151.79784546 -1.25270508 150.56679077 -1.2434082 149.2984314 C-1.21977743 146.250062 -1.18683249 143.20207633 -1.14575195 140.15390015 C-1.73670654 140.10636597 -2.32766113 140.05883179 -2.93652344 140.00985718 C-13.09951401 139.06209946 -21.25477304 134.77102522 -28.14575195 127.15390015 C-36.70141906 115.62994036 -37.61341725 104.03264641 -37.5793457 90.1578064 C-37.58391704 88.51692999 -37.58922542 86.8760555 -37.5952301 85.23518372 C-37.6041218 81.81014181 -37.60178325 78.38533357 -37.59179688 74.96029663 C-37.58031023 70.59841926 -37.6005338 66.23735188 -37.62971401 61.87558079 C-37.64817002 58.49094122 -37.64776501 55.10649244 -37.64207649 51.72181511 C-37.64192444 50.11485597 -37.64787187 48.50788293 -37.66036797 46.90097237 C-37.75310876 33.02355546 -35.4410979 21.9478835 -26.14575195 11.15390015 C-19.03630612 4.40718114 -9.83531299 0.06072476 0 0 Z M-21.57543945 20.7984314 C-22.09364258 21.57573608 -22.6118457 22.35304077 -23.14575195 23.15390015 C-24.16789795 24.67237549 -24.16789795 24.67237549 -25.21069336 26.2215271 C-28.55093068 33.03011138 -27.71873581 41.01849317 -27.67700195 48.42733765 C-27.679701 50.11830874 -27.68358685 51.80927832 -27.68859863 53.50024414 C-27.69447753 57.03566334 -27.6859852 60.57067678 -27.66723633 64.10604858 C-27.64448255 68.61383692 -27.65755699 73.12067056 -27.68152618 77.62842369 C-27.69605797 81.11856124 -27.69134401 84.60847671 -27.68101501 88.09862137 C-27.67836623 89.7594273 -27.68155166 91.42025407 -27.69093323 93.08103561 C-27.73575828 103.24756715 -27.43837977 112.18390095 -21.28637695 120.73983765 C-13.57584876 128.03616391 -7.48845079 130.4583265 3.09643555 131.66171265 C5.85424805 132.15390015 5.85424805 132.15390015 7.85424805 134.15390015 C8.1730957 136.21688843 8.1730957 136.21688843 8.26831055 138.72421265 C8.32631836 140.0680603 8.32631836 140.0680603 8.38549805 141.4390564 C8.41643555 142.37620483 8.44737305 143.31335327 8.47924805 144.27890015 C8.53725586 145.69622437 8.53725586 145.69622437 8.59643555 147.1421814 C8.69086151 149.4792239 8.77643199 151.81625515 8.85424805 154.15390015 C15.81960695 149.73986325 22.32373855 144.7999734 28.82470703 139.7371521 C29.88347046 138.9167041 29.88347046 138.9167041 30.96362305 138.0796814 C31.59236328 137.58895142 32.22110352 137.09822144 32.86889648 136.59262085 C33.5240625 136.11784302 34.17922852 135.64306519 34.85424805 135.15390015 C35.92282295 134.37830246 35.92282295 134.37830246 37.01298523 133.58703613 C40.5093789 131.82345145 43.475997 131.74179823 47.29980469 131.78500366 C48.03228424 131.78123718 48.76476379 131.7774707 49.5194397 131.77359009 C51.10501389 131.76717185 52.69062658 131.76747429 54.27620125 131.7737751 C56.79632636 131.78292226 59.31571306 131.77261763 61.83580017 131.75715637 C68.99908324 131.71717658 76.16230746 131.7158406 83.32568359 131.71810913 C87.71475669 131.71816061 92.10343474 131.69880186 96.49239922 131.66877556 C98.95622926 131.65805942 101.41926847 131.67001941 103.8830719 131.68260193 C114.98378154 131.65751154 126.05892756 130.87629868 134.46362305 122.71640015 C143.03077753 113.09038387 143.3087951 103.38252935 143.25268555 91.1578064 C143.25471015 89.59896204 143.25762479 88.04011861 143.26138306 86.48127747 C143.26578959 83.22419155 143.25943049 79.96735357 143.24536133 76.71029663 C143.22828454 72.55677539 143.23811141 68.40383649 143.25607872 64.25033665 C143.26697421 61.03391721 143.26344371 57.8176334 143.25569534 54.60120964 C143.25370848 53.07075874 143.25609878 51.54029511 143.263134 50.00985909 C143.30667805 37.87557522 142.11807279 27.6492668 133.85424805 18.15390015 C128.08592797 13.39274707 122.14294783 9.91854925 114.53681946 9.87974548 C113.48421432 9.86977036 112.43160919 9.85979523 111.34710693 9.84951782 C110.20260071 9.84885315 109.05809448 9.84818848 107.87890625 9.84750366 C106.66528915 9.83918015 105.45167206 9.83085663 104.20127869 9.82228088 C100.87862458 9.80232981 97.55622093 9.79154273 94.23352838 9.78645444 C92.15377933 9.7828042 90.07405412 9.77656057 87.99431419 9.76945305 C80.72731856 9.74497029 73.46039413 9.73191008 66.19335938 9.72836304 C59.43872498 9.72473295 52.68454639 9.6948729 45.93005115 9.65295845 C40.11666301 9.61815962 34.30342516 9.60281292 28.48993367 9.602117 C25.02423443 9.60132716 21.55899943 9.59272598 18.09340858 9.56411934 C14.2209509 9.53286866 10.34913732 9.54204412 6.4765625 9.55453491 C5.34217743 9.53970062 4.20779236 9.52486633 3.03903198 9.50958252 C-7.37103019 9.60486677 -14.8088533 12.82474068 -21.57543945 20.7984314 Z " fill="#00ADE8" transform="translate(64.145751953125,19.846099853515625)"/>
<path d="M0 0 C3 -0.375 3 -0.375 6 0 C8.48311198 3.72466797 8.25333762 5.63590552 8.25878906 10.0859375 C8.2622937 10.80332092 8.26579834 11.52070435 8.26940918 12.25982666 C8.27821318 14.63164948 8.27238215 17.00317413 8.265625 19.375 C8.26697204 21.02262428 8.26891289 22.67024817 8.27142334 24.31787109 C8.27437279 27.77119734 8.27008272 31.22442014 8.26074219 34.67773438 C8.24934772 39.10651891 8.25590815 43.53506103 8.26788712 47.96383667 C8.27511055 51.36614817 8.27281557 54.76840211 8.26763153 58.17071533 C8.26629637 59.80381295 8.26793809 61.43691578 8.27259064 63.07000732 C8.27766383 65.3515001 8.26993471 67.63259909 8.25878906 69.9140625 C8.25640228 71.8623999 8.25640228 71.8623999 8.25396729 73.85009766 C8 77 8 77 6 80 C3 80.375 3 80.375 0 80 C-2.48311198 76.27533203 -2.25333762 74.36409448 -2.25878906 69.9140625 C-2.2622937 69.19667908 -2.26579834 68.47929565 -2.26940918 67.74017334 C-2.27821318 65.36835052 -2.27238215 62.99682587 -2.265625 60.625 C-2.26697204 58.97737572 -2.26891289 57.32975183 -2.27142334 55.68212891 C-2.27437279 52.22880266 -2.27008272 48.77557986 -2.26074219 45.32226562 C-2.24934772 40.89348109 -2.25590815 36.46493897 -2.26788712 32.03616333 C-2.27511055 28.63385183 -2.27281557 25.23159789 -2.26763153 21.82928467 C-2.26629637 20.19618705 -2.26793809 18.56308422 -2.27259064 16.92999268 C-2.27766383 14.6484999 -2.26993471 12.36740091 -2.25878906 10.0859375 C-2.25719788 8.7870459 -2.25560669 7.4881543 -2.25396729 6.14990234 C-2 3 -2 3 0 0 Z " fill="#00ADED" transform="translate(119,51)"/>
<path d="M0 0 C2.4375 0.3125 2.4375 0.3125 4.4375 2.3125 C4.69146729 4.1340332 4.69146729 4.1340332 4.69628906 6.36328125 C4.70259338 7.19754639 4.70889771 8.03181152 4.71539307 8.89135742 C4.7113446 9.79345947 4.70729614 10.69556152 4.703125 11.625 C4.70503845 12.54966064 4.7069519 13.47432129 4.70892334 14.42700195 C4.71028566 16.38395459 4.70658596 18.34091624 4.69824219 20.29785156 C4.68754334 23.3003359 4.69813591 26.30222187 4.7109375 29.3046875 C4.70961591 31.20312633 4.70705354 33.10156478 4.703125 35 C4.70717346 35.90210205 4.71122192 36.8042041 4.71539307 37.73364258 C4.70908875 38.56790771 4.70278442 39.40217285 4.69628906 40.26171875 C4.69390228 41.36519653 4.69390228 41.36519653 4.69146729 42.4909668 C4.4375 44.3125 4.4375 44.3125 2.4375 46.3125 C0 46.625 0 46.625 -2.5625 46.3125 C-4.19839478 45.04077148 -4.19839478 45.04077148 -5.5625 43.3125 C-5.86097993 40.26387475 -5.98271845 37.42389905 -5.9609375 34.375 C-5.96380768 33.49851807 -5.96667786 32.62203613 -5.96963501 31.71899414 C-5.97167598 29.86636712 -5.96614378 28.01371858 -5.95361328 26.16113281 C-5.93755984 23.32307821 -5.95346055 20.48644773 -5.97265625 17.6484375 C-5.97067382 15.84895519 -5.96683016 14.04947376 -5.9609375 12.25 C-5.96701019 11.39994385 -5.97308289 10.5498877 -5.9793396 9.67407227 C-5.90852031 3.7508951 -5.90852031 3.7508951 -4.19839478 1.58422852 C-2.5625 0.3125 -2.5625 0.3125 0 0 Z " fill="#00A9E4" transform="translate(145.5625,68.6875)"/>
<path d="M0 0 C2.5 0.25 2.5 0.25 4.5 2.25 C4.75396729 4.0715332 4.75396729 4.0715332 4.75878906 6.30078125 C4.76509338 7.13504639 4.77139771 7.96931152 4.77789307 8.82885742 C4.7738446 9.73095947 4.76979614 10.63306152 4.765625 11.5625 C4.76753845 12.48716064 4.7694519 13.41182129 4.77142334 14.36450195 C4.77278566 16.32145459 4.76908596 18.27841624 4.76074219 20.23535156 C4.75004334 23.2378359 4.76063591 26.23972187 4.7734375 29.2421875 C4.77211591 31.14062633 4.76955354 33.03906478 4.765625 34.9375 C4.76967346 35.83960205 4.77372192 36.7417041 4.77789307 37.67114258 C4.77158875 38.50540771 4.76528442 39.33967285 4.75878906 40.19921875 C4.75640228 41.30269653 4.75640228 41.30269653 4.75396729 42.4284668 C4.5 44.25 4.5 44.25 2.5 46.25 C0 46.5 0 46.5 -2.5 46.25 C-4.87046531 43.87953469 -4.75183138 43.41595828 -4.75878906 40.19921875 C-4.76509338 39.36495361 -4.77139771 38.53068848 -4.77789307 37.67114258 C-4.7738446 36.76904053 -4.76979614 35.86693848 -4.765625 34.9375 C-4.76753845 34.01283936 -4.7694519 33.08817871 -4.77142334 32.13549805 C-4.77278566 30.17854541 -4.76908596 28.22158376 -4.76074219 26.26464844 C-4.75004334 23.2621641 -4.76063591 20.26027813 -4.7734375 17.2578125 C-4.77211591 15.35937367 -4.76955354 13.46093522 -4.765625 11.5625 C-4.76967346 10.66039795 -4.77372192 9.7582959 -4.77789307 8.82885742 C-4.77158875 7.99459229 -4.76528442 7.16032715 -4.75878906 6.30078125 C-4.75719788 5.56512939 -4.75560669 4.82947754 -4.75396729 4.0715332 C-4.31853277 0.94845996 -2.99667725 0.29966772 0 0 Z " fill="#00B1EE" transform="translate(98.5,68.75)"/>
<path d="M0 0 C3.1305429 -0.39964378 5.13083761 -0.52149743 7.875 1.125 C9.55468045 3.92446741 9.45742277 5.79804064 9 9 C7.3125 11.4375 7.3125 11.4375 5 13 C1.60845705 12.83849795 0.41703243 12.41703243 -2 10 C-2.31537716 5.66356399 -2.44897847 3.67346771 0 0 Z " fill="#00AEE7" transform="translate(164,86)"/>
<path d="M0 0 C3 0.25 3 0.25 5 2.25 C5.30078125 4.34375 5.30078125 4.34375 5.3125 6.75 C5.33763672 7.94109375 5.33763672 7.94109375 5.36328125 9.15625 C5.24339844 9.8471875 5.12351562 10.538125 5 11.25 C1.79191085 13.3887261 0.72301503 13.72730962 -3 13.25 C-5.71232939 9.18150591 -5.30699887 7.08523216 -5 2.25 C-3 0.25 -3 0.25 0 0 Z " fill="#00AFE8" transform="translate(77,85.75)"/>
<path d="M0 0 C0.66 0.33 1.32 0.66 2 1 C-1.63 4.63 -5.26 8.26 -9 12 C-9 8.47601214 -8.44884893 7.98495633 -6.1875 5.4375 C-5.40439453 4.53837891 -5.40439453 4.53837891 -4.60546875 3.62109375 C-3 2 -3 2 0 0 Z " fill="#001F2A" transform="translate(51,33)"/>
<path d="M0 0 C0.33 0.99 0.66 1.98 1 3 C-1.97 5.475 -1.97 5.475 -5 8 C-5.66 7.67 -6.32 7.34 -7 7 C-2.25 1.125 -2.25 1.125 0 0 Z " fill="#00A2D0" transform="translate(42,28)"/>
<path d="M0 0 C-0.99 0 -1.98 0 -3 0 C-3 0.66 -3 1.32 -3 2 C-4.98 2.66 -6.96 3.32 -9 4 C-9.66 3.34 -10.32 2.68 -11 2 C-3.57142857 -1.57142857 -3.57142857 -1.57142857 0 0 Z " fill="#019BC5" transform="translate(59,22)"/>
</svg>
